<svg width="189" height="336" viewBox="0 0 189 336" fill="none" xmlns="http://www.w3.org/2000/svg">
<path fill-rule="evenodd" clip-rule="evenodd" d="M130.179 37.4742C130.179 88.3094 130.375 129.81 130.616 129.698C130.856 129.586 149.144 116.968 171.255 101.659L211.457 73.8234L211.447 41.094L211.438 8.36455L171.194 -23.2943C149.059 -40.707 130.775 -54.9531 130.563 -54.9531C130.352 -54.9531 130.179 -13.3605 130.179 37.4742ZM0.763138 137.293L0.787986 275.706L40.1627 305.376C61.8181 321.695 79.8641 335.267 80.2638 335.536C80.8877 335.956 80.9913 316.629 80.9913 199.973V63.9208L47.4782 36.7541C29.0464 21.813 10.9894 7.17895 7.35165 4.23391L0.738281 -1.11964L0.763138 137.293ZM174.706 177.91L136.133 208.073V213.725V219.378L174.706 249.556L213.279 279.734L213.413 246.673C213.487 228.489 213.487 198.792 213.413 180.679L213.279 147.746L174.706 177.91Z" fill="#009FDA" fill-opacity="0.05"/>
</svg>
