<svg width="32" height="32" viewBox="0 0 32 32" fill="none" xmlns="http://www.w3.org/2000/svg">
<circle cx="16.177" cy="15.7083" r="14.3255" fill="white" stroke="#FFF1F1" stroke-width="2"/>
<path d="M23.4095 19.3366C23.2374 19.4628 23.0298 19.5313 22.8165 19.5322C22.5111 19.5314 22.2226 19.3926 22.0312 19.1547C22.1152 19.5197 22.3784 19.8171 22.7304 19.9444C23.0824 20.0719 23.475 20.0117 23.7727 19.7847C24.0706 19.5579 24.2329 19.1952 24.2037 18.8217C24.1745 18.4485 23.9579 18.1154 23.6284 17.9375C23.7576 18.1098 23.8285 18.3189 23.8306 18.5343C23.8345 18.5859 23.8345 18.6377 23.8306 18.6893C23.7813 18.9524 23.6299 19.1851 23.4094 19.3367L23.4095 19.3366Z" fill="#FF0000"/>
<path d="M11.9477 19.3901C11.7887 20.1395 11.2716 20.7628 10.5646 21.057C9.85756 21.3513 9.05109 21.279 8.40772 20.8636C7.76434 20.4482 7.36615 19.7429 7.34285 18.9771C7.31955 18.2113 7.67395 17.483 8.29084 17.0292C8.90788 16.5752 9.70834 16.4539 10.4319 16.7047C11.1554 16.9553 11.7096 17.5459 11.914 18.2841C11.9631 18.1952 12.0243 18.1135 12.0961 18.0415L12.807 17.3234V17.3233C12.3101 16.3425 11.3829 15.6509 10.3015 15.4548C9.22006 15.2587 8.10929 15.5805 7.29986 16.3245C6.49055 17.0684 6.07599 18.1485 6.17977 19.2433C6.28357 20.338 6.8937 21.321 7.82844 21.8994C8.76318 22.4779 9.91473 22.5849 10.9399 22.1889C11.9652 21.7927 12.7459 20.9392 13.0496 19.8823H12.8777C12.5037 19.8897 12.1522 19.7036 11.9478 19.3901L11.9477 19.3901Z" fill="#FF0000"/>
<path d="M10.7819 18.9072C10.7819 19.516 10.2885 20.0097 9.68 20.0097C9.07135 20.0097 8.57812 19.516 8.57812 18.9072C8.57812 18.2983 9.07139 17.8047 9.68 17.8047C10.2885 17.8047 10.7819 18.2983 10.7819 18.9072Z" fill="#FF0000"/>
<path d="M23.361 15.4062C23.0809 15.5407 22.8193 15.7106 22.5826 15.912L22.3131 16.1412L22.6702 16.6268C23.3667 16.4939 24.0857 16.6858 24.6235 17.1478C25.1614 17.61 25.4594 18.2923 25.4332 19.0013C25.4071 19.7101 25.0596 20.3685 24.4891 20.7896C23.9187 21.2109 23.1875 21.3492 22.5027 21.1653C21.818 20.9814 21.2543 20.4952 20.9714 19.8449C20.6886 19.1943 20.7173 18.4504 21.0494 17.8236L20.7731 17.4495L19.6275 18.4239V18.4237C19.6047 18.5857 19.5935 18.7491 19.5938 18.9126C19.5945 19.8294 19.9533 20.7096 20.5937 21.3653C21.234 22.021 22.1052 22.4002 23.0213 22.4221C23.9372 22.4439 24.8255 22.1066 25.4964 21.4823C26.1671 20.8578 26.5676 19.9958 26.6118 19.0801C26.6562 18.1644 26.341 17.2676 25.7336 16.5812C25.1263 15.8948 24.2747 15.4732 23.3609 15.4063L23.361 15.4062Z" fill="#FF0000"/>
<path d="M25.6897 13.0905L23.5029 9.59091C23.4209 9.45108 23.2913 9.34542 23.1378 9.29349C22.9842 9.24141 22.8173 9.24653 22.6671 9.30764C22.4904 9.385 22.3553 9.53461 22.296 9.71823C22.2367 9.902 22.259 10.1023 22.3572 10.2685L23.1795 11.6171H23.1793C23.2858 11.787 23.3332 11.9873 23.3141 12.1869C23.2994 12.3602 23.2201 12.5214 23.0918 12.6386L22.182 11.1181C22.1623 11.0868 22.128 11.0677 22.091 11.0676H20.9386C20.7525 11.0676 20.6016 11.2185 20.6016 11.4047C20.6016 11.4941 20.6371 11.5799 20.7003 11.6431C20.7635 11.7063 20.8492 11.7419 20.9386 11.7419H21.7203C21.7573 11.742 21.7916 11.7611 21.8114 11.7924L22.4549 12.868L21.3497 12.7095L20.1603 14.1222V14.1221C20.1299 14.1588 20.0885 14.1848 20.0423 14.1963L14.4118 15.528C14.3052 15.5548 14.2214 15.6374 14.1928 15.7438L14.0614 16.2057H14.0615C14.0374 16.2879 13.9676 16.3487 13.8828 16.361C13.798 16.3734 13.7137 16.335 13.6672 16.2629C13.5276 16.0495 13.371 15.8477 13.1988 15.6595L13.7683 14.9009C13.8506 14.9324 13.926 14.9793 13.9906 15.0391C14.0632 15.1061 14.1642 15.1327 14.2602 15.11L19.8572 13.7918L20.9455 12.5005L20.9457 12.5004C20.8723 12.4388 20.8067 12.3687 20.7503 12.2913C20.1168 11.4215 19.1193 11.1349 18.1019 11.0472C17.1785 10.9662 16.0801 10.9325 15.4366 11.7013C14.9581 12.2813 14.7896 13.3095 13.8056 13.0499L10.8977 12.2509L10.5809 11.8395V11.8397C10.1364 11.2678 9.43163 10.9617 8.71081 11.027L7.30914 11.1551H7.30899C7.18745 11.1672 7.08455 11.2504 7.04725 11.3667C7.00994 11.4832 7.04529 11.6107 7.1372 11.6912L8.0032 12.4667L6.76655 12.6252L5.44563 14.3109C5.32725 14.4685 5.34455 14.6896 5.4861 14.8267C5.56522 14.8966 5.66977 14.9309 5.77492 14.9212C5.88007 14.9116 5.97679 14.8592 6.04208 14.7761L7.17765 13.3129L8.79173 13.1073H8.79158C9.14569 13.3779 9.54491 13.5835 9.97094 13.7141L12.7644 14.5738L12.4578 14.9817H12.4577C11.8739 14.5645 11.2016 14.2877 10.4932 14.1726C10.27 14.1382 10.061 14.2913 10.0266 14.5148C9.99216 14.7383 10.1453 14.9474 10.3685 14.9817C11.7187 15.2058 12.8516 16.1241 13.3506 17.3991L13.0137 17.7362L12.4307 18.3262C12.3093 18.4486 12.2415 18.614 12.2419 18.7863C12.2422 18.9586 12.311 19.1238 12.433 19.2455C12.555 19.3671 12.7202 19.4355 12.8924 19.4355H16.9055C17.4427 19.4355 17.9622 19.2443 18.3712 18.896L20.8546 16.7788L22.3642 18.8724C22.4576 18.9996 22.5997 19.0822 22.7563 19.1001C22.9131 19.1181 23.0701 19.0697 23.1897 18.9668C23.2977 18.8653 23.3641 18.7273 23.3758 18.5797C23.3877 18.432 23.3442 18.2851 23.2538 18.1677L21.7207 16.0673L22.4418 15.4605C23.1395 14.9258 23.9863 14.6219 24.8645 14.5907C25.0975 14.5876 25.3219 14.5022 25.4978 14.3491C25.6736 14.196 25.7894 13.9854 25.8246 13.755C25.8598 13.5244 25.8122 13.2889 25.69 13.0904L25.6897 13.0905Z" fill="#FF0000"/>
</svg>
