<svg width="81" height="36" viewBox="0 0 81 36" fill="none" xmlns="http://www.w3.org/2000/svg">
<path d="M0.125 35.8938L1.575 28.6438L16.225 17.3938C17.2917 16.5604 18.1083 15.8438 18.675 15.2437C19.275 14.6437 19.6917 14.0771 19.925 13.5437C20.1583 13.0104 20.275 12.4771 20.275 11.9438C20.275 11.1771 19.975 10.5604 19.375 10.0938C18.8083 9.62708 18.0417 9.39375 17.075 9.39375C16.0417 9.39375 15.0417 9.69375 14.075 10.2938C13.1417 10.8604 12.2917 11.6771 11.525 12.7437L3.675 7.89375C5.04167 5.52708 7.05833 3.64375 9.725 2.24375C12.425 0.810417 15.475 0.09375 18.875 0.09375C21.475 0.09375 23.7917 0.527083 25.825 1.39375C27.8917 2.26042 29.5083 3.44375 30.675 4.94375C31.8417 6.44375 32.425 8.16042 32.425 10.0938C32.425 11.5271 32.1583 12.9104 31.625 14.2437C31.125 15.5437 30.2583 16.8771 29.025 18.2437C27.825 19.5771 26.175 21.0438 24.075 22.6438L13.275 30.8438L11.875 26.7437H30.025L28.175 35.8938H0.125Z" fill="#303030"/>
<path d="M31.9949 35.8938L38.9949 0.893749H48.5949L57.9449 23.7437H52.8449L70.8449 0.893749H80.8949L73.9949 35.8938H63.2449L66.8949 17.0938L68.5949 16.9937L56.4949 32.7438H51.2949L44.4949 16.9438L46.4949 17.0938L42.7449 35.8938H31.9949Z" fill="#303030"/>
</svg>
