<svg width="69" height="36" viewBox="0 0 69 36" fill="none" xmlns="http://www.w3.org/2000/svg">
<path d="M13.625 35.8938C11.125 35.8938 8.70833 35.5938 6.375 34.9938C4.075 34.3938 1.99167 33.4771 0.125 32.2438L5.475 24.0438C6.84167 24.9104 8.30833 25.5604 9.875 25.9937C11.475 26.3937 12.9917 26.5938 14.425 26.5938C15.525 26.5938 16.4417 26.4771 17.175 26.2438C17.9417 26.0104 18.5083 25.6771 18.875 25.2437C19.275 24.7771 19.475 24.2271 19.475 23.5938C19.475 22.8938 19.1917 22.3771 18.625 22.0438C18.0583 21.6771 17.175 21.4937 15.975 21.4937H11.125L12.575 14.2438L23.225 5.04375L23.725 8.99375H6.275L8.075 0.09375H34.175L32.725 7.34375L22.075 16.5438L16.825 13.4438H19.425C21.8583 13.4438 23.9583 13.8271 25.725 14.5938C27.525 15.3604 28.9083 16.4438 29.875 17.8438C30.875 19.2438 31.375 20.8938 31.375 22.7938C31.375 25.2938 30.5917 27.5438 29.025 29.5438C27.4917 31.5104 25.375 33.0604 22.675 34.1937C20.0083 35.3271 16.9917 35.8938 13.625 35.8938Z" fill="#303030"/>
<path d="M36.4938 35.0938L55.4438 4.29375L57.9938 9.24375H41.3937L47.0938 3.89375L44.9938 14.3438H35.2438L38.0938 0.09375H68.0437L66.5938 7.34375L49.7938 35.0938H36.4938Z" fill="#303030"/>
</svg>
