<svg width="72" height="38" viewBox="0 0 72 38" fill="none" xmlns="http://www.w3.org/2000/svg">
<path d="M18.675 1.39375C21.6083 1.39375 24.1917 1.92708 26.425 2.99375C28.6917 4.06042 30.4583 5.64375 31.725 7.74375C33.025 9.84375 33.675 12.4604 33.675 15.5938C33.675 17.6271 33.3917 19.7104 32.825 21.8438C32.2917 23.9438 31.4417 25.9604 30.275 27.8938C29.1083 29.8271 27.625 31.5604 25.825 33.0938C24.0583 34.5938 21.9583 35.7938 19.525 36.6938C17.0917 37.5604 14.2917 37.9938 11.125 37.9938C8.95833 37.9938 6.875 37.7438 4.875 37.2438C2.90833 36.7771 1.325 36.1104 0.125 35.2438L5.475 27.1438C6.40833 27.7771 7.39167 28.2271 8.425 28.4938C9.45833 28.7271 10.575 28.8438 11.775 28.8438C12.875 28.8438 13.875 28.7271 14.775 28.4938C15.675 28.2271 16.475 27.8604 17.175 27.3938C17.875 26.8938 18.475 26.3104 18.975 25.6438C19.5083 24.9438 19.9417 24.1771 20.275 23.3438C20.6417 22.4771 20.925 21.5438 21.125 20.5438C21.225 20.0438 21.2917 19.5604 21.325 19.0938C21.3583 18.5938 21.3917 18.0938 21.425 17.5938L23.875 19.0438C23.1417 20.3438 22.3083 21.4271 21.375 22.2938C20.4417 23.1271 19.425 23.7604 18.325 24.1938C17.225 24.6271 16.025 24.8438 14.725 24.8438C12.725 24.8438 10.8417 24.4604 9.075 23.6938C7.34167 22.9271 5.94167 21.7938 4.875 20.2938C3.80833 18.7938 3.275 16.9438 3.275 14.7438C3.275 12.0104 3.925 9.66042 5.225 7.69375C6.55833 5.69375 8.39167 4.14375 10.725 3.04375C13.0583 1.94375 15.7083 1.39375 18.675 1.39375ZM18.725 9.54375C17.6917 9.54375 16.775 9.89375 15.975 10.5938C15.2083 11.2938 14.825 12.2771 14.825 13.5438C14.825 14.5104 15.1083 15.2771 15.675 15.8438C16.275 16.4104 17.0917 16.6938 18.125 16.6938C18.8583 16.6938 19.5083 16.5438 20.075 16.2438C20.675 15.9104 21.1417 15.4438 21.475 14.8438C21.8417 14.2437 22.025 13.5604 22.025 12.7938C22.025 12.1604 21.8917 11.6104 21.625 11.1438C21.3917 10.6438 21.025 10.2604 20.525 9.99375C20.0583 9.69375 19.4583 9.54375 18.725 9.54375Z" fill="#303030"/>
<path d="M44.2816 33.4438L46.7816 19.3438L57.5816 9.84375H71.4816L56.3816 23.4438L49.8316 28.2438L44.2816 33.4438ZM33.5316 37.1938L40.9316 0.09375H52.2316L44.8316 37.1938H33.5316ZM53.4816 37.1938L47.8816 27.6938L55.9316 19.1438L66.7316 37.1938H53.4816Z" fill="#303030"/>
</svg>
