<svg width="54" height="55" viewBox="0 0 54 55" fill="none" xmlns="http://www.w3.org/2000/svg">
<path d="M10.0597 27.6723L26.7661 10.966C26.9152 10.8168 26.9991 10.6144 26.9991 10.4034V6.42571C26.9984 5.79283 26.7466 5.18621 26.2994 4.73871C25.8519 4.29157 25.2453 4.03977 24.6124 4.03906H17.4525C17.2416 4.03906 17.0391 4.12288 16.89 4.27204L3.36579 17.7962C3.21663 17.9454 3.13281 18.1478 3.13281 18.3588V25.5187C3.13352 26.1515 3.38532 26.7582 3.83246 27.2057C4.27996 27.6528 4.88658 27.9046 5.51946 27.9053H9.49717C9.70813 27.9053 9.91057 27.8215 10.0597 27.6723ZM5.51942 26.3142C5.0801 26.3138 4.72423 25.958 4.72388 25.5186V18.6884L17.7817 5.63058H24.6119C25.0513 5.63094 25.4071 5.9868 25.4075 6.42612V10.0742L9.16754 26.3142H5.51942Z" fill="#303030"/>
<path d="M31.7706 29.4947C31.7706 28.6508 31.4353 27.8414 30.8387 27.2444C30.2416 26.6478 29.4322 26.3125 28.5884 26.3125C27.7446 26.3125 26.9351 26.6478 26.3382 27.2444C25.7415 27.8414 25.4062 28.6508 25.4062 29.4947C25.4062 30.3385 25.7415 31.1479 26.3382 31.7449C26.9352 32.3416 27.7446 32.6768 28.5884 32.6768C29.4323 32.6758 30.241 32.3401 30.8376 31.7438C31.4339 31.1472 31.7695 30.3385 31.7706 29.4947ZM28.5884 31.0857C28.1665 31.0857 27.7616 30.9181 27.4633 30.6198C27.165 30.3215 26.9973 29.9166 26.9973 29.4947C26.9973 29.0727 27.165 28.6679 27.4633 28.3695C27.7616 28.0712 28.1665 27.9036 28.5884 27.9036C29.0103 27.9036 29.4152 28.0712 29.7135 28.3695C30.0119 28.6679 30.1795 29.0727 30.1795 29.4947C30.1791 29.9166 30.0111 30.3207 29.7128 30.6191C29.4145 30.9174 29.0103 31.0854 28.5884 31.0857L28.5884 31.0857Z" fill="#303030"/>
<path d="M27.7969 23.1328H29.388V24.7239H27.7969V23.1328Z" fill="#303030"/>
<path d="M22.2891 28.2868L22.7806 26.7734L24.2939 27.265L23.8024 28.7783L22.2891 28.2868Z" fill="#303030"/>
<path d="M24.2109 34.1855L25.1464 32.8984L26.4335 33.8339L25.498 35.121L24.2109 34.1855Z" fill="#303030"/>
<path d="M30.75 33.8257L32.037 32.8906L32.9722 34.1777L31.6851 35.1128L30.75 33.8257Z" fill="#303030"/>
<path d="M32.8828 27.265L34.3962 26.7734L34.8877 28.2868L33.3743 28.7783L32.8828 27.265Z" fill="#303030"/>
<path d="M28.5934 19.9531C26.0615 19.9531 23.6333 20.9589 21.843 22.7492C20.0527 24.5396 19.0469 26.9677 19.0469 29.4996C19.0469 32.0315 20.0526 34.4597 21.843 36.25C23.6334 38.0403 26.0615 39.0461 28.5934 39.0461C31.1253 39.0461 33.5535 38.0404 35.3437 36.25C37.134 34.4596 38.1399 32.0315 38.1399 29.4996C38.137 26.9684 37.1302 24.5421 35.3406 22.7524C33.5509 20.9628 31.1246 19.9559 28.5934 19.9531ZM28.5934 37.455C26.4834 37.455 24.4601 36.6169 22.9681 35.1249C21.4761 33.6329 20.638 31.6096 20.638 29.4996C20.638 27.3897 21.4761 25.3663 22.9681 23.8744C24.4601 22.3824 26.4834 21.5442 28.5934 21.5442C30.7033 21.5442 32.7266 22.3824 34.2186 23.8744C35.7106 25.3664 36.5488 27.3897 36.5488 29.4996C36.5463 31.6088 35.7074 33.6308 34.2162 35.1224C32.7245 36.6137 30.7026 37.4526 28.5934 37.455Z" fill="#303030"/>
<path d="M28.588 16.7656C25.2123 16.7656 21.9748 18.1067 19.5874 20.4937C17.2004 22.881 15.8594 26.1185 15.8594 29.4943C15.8594 32.87 17.2004 36.1075 19.5874 38.4949C21.9748 40.8819 25.2123 42.2229 28.588 42.2229C31.9638 42.2229 35.2013 40.8819 37.5886 38.4949C39.9756 36.1075 41.3167 32.87 41.3167 29.4943C41.3128 26.1196 39.9706 22.8842 37.5844 20.4979C35.1981 18.1117 31.9627 16.7695 28.588 16.7656ZM28.588 40.6319C25.6343 40.6319 22.8012 39.4585 20.7125 37.3698C18.6239 35.2811 17.4505 32.4481 17.4505 29.4943C17.4505 26.5405 18.6239 23.7075 20.7125 21.6188C22.8012 19.5301 25.6343 18.3567 28.588 18.3567C31.5418 18.3567 34.3748 19.5301 36.4635 21.6188C38.5522 23.7075 39.7256 26.5405 39.7256 29.4943C39.7224 32.4471 38.5479 35.2779 36.4596 37.3659C34.3717 39.4542 31.5407 40.6287 28.588 40.6319Z" fill="#303030"/>
<path d="M9.49595 17.5626C8.86307 17.5626 8.25573 17.814 7.80831 18.2615C7.3609 18.709 7.10938 19.3164 7.10938 19.9491C7.10938 20.5819 7.36082 21.1894 7.80831 21.6368C8.25581 22.0842 8.86316 22.3357 9.49595 22.3357C10.1287 22.3357 10.7362 22.0843 11.1836 21.6368C11.631 21.1893 11.8825 20.5819 11.8825 19.9491C11.8818 19.3163 11.63 18.7097 11.1829 18.2621C10.7354 17.815 10.1288 17.5632 9.49588 17.5625L9.49595 17.5626ZM9.49595 20.7447C9.17418 20.7447 8.88402 20.5508 8.76114 20.2536C8.6379 19.9563 8.70574 19.6143 8.93339 19.3866C9.16104 19.159 9.50305 19.0911 9.80032 19.2144C10.0976 19.3373 10.2915 19.6274 10.2915 19.9492C10.2911 20.3885 9.93527 20.7444 9.49595 20.7447Z" fill="#303030"/>
<path d="M6.3125 23.1328H7.90358V24.7239H6.3125V23.1328Z" fill="#303030"/>
<path d="M22.125 7.21875H23.7161V8.80983H22.125V7.21875Z" fill="#303030"/>
<path d="M44.3387 13.7429C42.2749 11.6681 39.8205 10.0231 37.1167 8.90329C34.4129 7.78353 31.5141 7.21065 28.5876 7.21884V8.80992C39.9925 8.80992 49.2717 18.0891 49.2717 29.494C49.2717 40.8989 39.9925 50.178 28.5876 50.178C17.1828 50.178 7.90358 40.8989 7.90358 29.494H6.3125C6.3125 33.8996 7.61873 38.2062 10.0665 41.869C12.5142 45.5324 15.9933 48.3874 20.063 50.0733C24.1334 51.7592 28.6122 52.2004 32.9326 51.3408C37.2537 50.4813 41.2226 48.3597 44.3384 45.2446C47.1032 42.4798 49.0913 39.0358 50.1035 35.259C51.1154 31.4823 51.1154 27.5053 50.1035 23.7286C49.0913 19.9516 47.1032 16.5077 44.3384 13.743L44.3387 13.7429Z" fill="#303030"/>
<path d="M11.6567 16.2753L12.9103 17.2552L12.91 17.2555C15.1869 14.3372 18.2319 12.1119 21.7039 10.8286L21.1531 9.33594H21.1527C17.4038 10.7214 14.1154 13.1243 11.6562 16.2752L11.6567 16.2753Z" fill="#303030"/>
<path d="M27.7969 43.8125V43.9489C27.7923 45.6018 28.4493 47.1875 29.6209 48.3528L30.7457 47.2277H30.746C29.8734 46.36 29.3843 45.1796 29.3879 43.949V43.8126L27.7969 43.8125Z" fill="#303030"/>
<path d="M38.1562 40.1877L38.2529 40.2843C39.4184 41.4563 41.0042 42.113 42.6568 42.1083V40.5172C41.4262 40.5208 40.2456 40.0318 39.3781 39.1591L39.2815 39.0625L38.1562 40.1877Z" fill="#303030"/>
<path d="M46.3213 27.3438C45.4537 28.216 44.2732 28.7051 43.0426 28.7019H42.9062V30.293H43.0426C44.6955 30.2976 46.2809 29.6406 47.4466 28.469L46.3213 27.3438Z" fill="#303030"/>
<path d="M41.2021 15.4298H39.611C39.6145 16.6604 39.1255 17.8409 38.2529 18.7085L38.1562 18.8051L39.2814 19.9302L39.378 19.8336C40.5496 18.668 41.2066 17.0822 41.202 15.4297L41.2021 15.4298Z" fill="#303030"/>
<path d="M27.7963 15.178H29.3873V15.0416C29.3873 13.8966 29.072 12.774 28.4753 11.7969L27.1172 12.6258C27.5615 13.3532 27.7962 14.1892 27.7962 15.0415L27.7963 15.178Z" fill="#303030"/>
<path d="M10.8596 31.6446C11.7272 30.7723 12.9077 30.2832 14.1383 30.2864H14.2747V28.6953H14.1383C12.4854 28.6907 10.9 29.3478 9.73438 30.5194L10.8596 31.6446Z" fill="#303030"/>
<path d="M15.9844 43.5626H17.5755C17.5719 42.332 18.0609 41.1514 18.9336 40.2839L19.0302 40.1873L17.9051 39.0625L17.8085 39.1591V39.1587C16.6368 40.3243 15.9798 41.9101 15.9845 43.5627L15.9844 43.5626Z" fill="#303030"/>
</svg>
