<svg width="55" height="55" viewBox="0 0 55 55" fill="none" xmlns="http://www.w3.org/2000/svg">
<path fill-rule="evenodd" clip-rule="evenodd" d="M9.05024 16.0196C7.20571 15.2306 5.17511 17.0129 5.71292 18.9456L6.17251 20.6143C6.66462 22.382 8.29128 23.613 10.1263 23.613H22.7853L23.1118 22.0413L9.04973 16.0199L9.05024 16.0196ZM8.39725 17.531L18.7838 21.9684H10.1264C9.0193 21.9684 8.05337 21.2456 7.75648 20.1791L7.28483 18.4984C7.08557 17.7829 7.71443 17.2389 8.39743 17.531H8.39725Z" fill="black"/>
<path fill-rule="evenodd" clip-rule="evenodd" d="M8.38171 13.3786C8.11335 13.402 7.87387 13.5559 7.74079 13.7899L3.65394 20.7424V20.742C3.52012 20.9285 3.4704 21.1625 3.5172 21.3874C3.564 21.6122 3.70293 21.8067 3.90037 21.9241C4.09744 22.0414 4.33508 22.0707 4.55482 22.0045C4.77456 21.9387 4.95664 21.7833 5.05645 21.5764L9.15538 14.6238V14.6242C9.31844 14.3595 9.31808 14.0257 9.15391 13.7617C8.99012 13.4981 8.69104 13.3497 8.38173 13.3786L8.38171 13.3786Z" fill="black"/>
<path fill-rule="evenodd" clip-rule="evenodd" d="M6.77372 19.1019C6.51377 19.1136 6.27466 19.2485 6.13024 19.4653C5.98545 19.6818 5.95255 19.9541 6.04103 20.1991L12.6824 39.4166C13.4787 41.7218 15.6534 43.2717 18.0921 43.2717H30.7287C32.4208 43.2717 34.0288 42.5254 35.118 41.2304L48.7299 25.0464L50.0735 24.0388H51.4368C51.6558 24.0413 51.8668 23.9561 52.0226 23.8022C52.1783 23.6486 52.2661 23.4388 52.2661 23.2198C52.2661 23.0008 52.1783 22.7909 52.0226 22.637C51.8668 22.4831 51.6558 22.3979 51.4368 22.4008H50.0739C49.7196 22.4012 49.3752 22.5152 49.0918 22.7269L47.7482 23.7346C47.6484 23.8081 47.5567 23.8951 47.4762 23.9902L33.8643 40.1751C33.0859 41.1008 31.9386 41.6339 30.7292 41.6339H18.0926C16.3464 41.6339 14.7984 40.533 14.228 38.8826L7.58986 19.6651H7.5895C7.47505 19.3156 7.14125 19.0856 6.77381 19.1024L6.77372 19.1019Z" fill="black"/>
<path fill-rule="evenodd" clip-rule="evenodd" d="M22.9394 22L22.625 23.608L31.5362 25.3852C31.9237 25.4628 32.2012 25.7999 32.2012 26.1954V33.4504C32.2012 34.7977 33.3087 35.9048 34.6556 35.9048H45.7067V34.2603H34.6556C34.1935 34.2603 33.8334 33.9122 33.8334 33.4501V26.1951C33.8334 25.0288 33.006 24.0054 31.8623 23.777L22.9394 22Z" fill="black"/>
<path fill-rule="evenodd" clip-rule="evenodd" d="M35.4844 23.6172V25.2496H48.18V23.6172H35.4844Z" fill="black"/>
<path d="M47.7669 32.625C46.4196 32.625 45.3125 33.7324 45.3125 35.0794C45.3125 36.4267 46.4199 37.5338 47.7669 37.5338C49.1143 37.5338 50.2213 36.4264 50.2213 35.0794C50.2213 33.7321 49.1139 32.625 47.7669 32.625ZM47.7669 34.2574C48.2291 34.2574 48.5892 34.6176 48.5892 35.0797C48.5892 35.5415 48.2291 35.902 47.7669 35.902C47.3048 35.902 46.9446 35.5418 46.9446 35.0797C46.9446 34.6179 47.3048 34.2574 47.7669 34.2574Z" fill="black"/>
<path d="M33.0869 21.1646C31.3802 21.1335 29.9203 22.4274 29.762 24.1268H29.7617C29.7182 24.5776 30.0483 24.9783 30.4991 25.0218C30.9499 25.0653 31.3506 24.7348 31.3941 24.2844C31.4746 23.4233 32.1861 22.7813 33.0507 22.797C33.9154 22.8157 34.6104 23.4811 34.6587 24.3446C34.7074 25.2082 34.0895 25.9486 33.2321 26.0616H33.2318C33.0062 26.0773 32.797 26.1859 32.6541 26.361C32.5111 26.5365 32.4471 26.7636 32.4771 26.9877C32.5075 27.2118 32.6289 27.4137 32.8131 27.5453C32.9974 27.6769 33.2277 27.7262 33.4497 27.6816C35.1421 27.4586 36.387 25.952 36.2912 24.2477C36.1954 22.5436 34.7936 21.196 33.087 21.1645L33.0869 21.1646Z" fill="black"/>
<path fill-rule="evenodd" clip-rule="evenodd" d="M34.6575 34.2581C33.3102 34.2581 32.2031 35.3776 32.2031 36.7246V42.0447H33.8356V36.7246C33.8356 36.2628 34.1957 35.9023 34.6578 35.9023H37.4266V34.2578H34.6578L34.6575 34.2581Z" fill="black"/>
<path fill-rule="evenodd" clip-rule="evenodd" d="M3.46284 20.3468C3.10929 20.3724 2.81241 20.6228 2.72722 20.9665C2.64203 21.3105 2.78754 21.6703 3.08808 21.8582L4.29718 22.6564C4.67449 22.9101 5.18599 22.8099 5.43972 22.4326C5.69346 22.0553 5.59328 21.5438 5.21597 21.2901L4.00687 20.4919C3.8482 20.3808 3.65552 20.3296 3.46284 20.3471V20.3468Z" fill="black"/>
<path fill-rule="evenodd" clip-rule="evenodd" d="M8.0478 12.5547C7.68145 12.5504 7.35642 12.7898 7.25258 13.1412C7.14838 13.4925 7.29061 13.8702 7.60028 14.0658L8.80938 14.876C9.18669 15.1265 9.69563 15.0237 9.94612 14.6464C10.1966 14.2691 10.0938 13.7602 9.71652 13.5097L8.50742 12.6999C8.37214 12.6063 8.21201 12.5558 8.04784 12.5547L8.0478 12.5547Z" fill="black"/>
</svg>
