<svg width="54" height="55" viewBox="0 0 54 55" fill="none" xmlns="http://www.w3.org/2000/svg">
<path d="M13.8531 12.784L26.6434 6.38899C26.8685 6.27659 27.1336 6.27659 27.3587 6.38899L40.149 12.784C40.4097 12.9105 40.601 13.1757 40.601 13.5045V27.9047C40.601 28.2079 40.4299 28.4848 40.1587 28.6204L27.3661 35.0163C27.1518 35.1269 26.8875 35.1426 26.6431 35.0202L13.8428 28.6204C13.5716 28.4848 13.4005 28.2079 13.4005 27.9047V13.5045C13.4005 13.1757 13.5918 12.9105 13.8525 12.784L13.8531 12.784ZM38.0127 13.5045L27.0013 7.99902L15.9899 13.5045L27.0013 19.0102L38.0127 13.5045ZM26.2013 20.3991L15.0017 14.799V27.4103L26.2013 33.0104V20.3991ZM27.8014 20.3991V33.0104L39.001 27.4103V14.799L27.8014 20.3991ZM28.27 44.7045H27.0014C12.4777 44.7045 0.601562 38.7663 0.601562 31.1042C0.601562 27.6075 3.08186 24.3919 7.40734 21.942C7.79185 21.7241 8.27998 21.8591 8.4976 22.2436C8.71546 22.6281 8.58046 23.1163 8.19595 23.3339C4.32315 25.5279 2.20172 28.2783 2.20172 31.1045C2.20172 37.5812 13.2486 43.104 27.0016 43.104H28.2702L24.8358 39.67C24.5233 39.3575 24.5233 38.8509 24.8358 38.5384C25.1483 38.2259 25.6548 38.2259 25.9674 38.5384L30.7671 43.3385C31.0796 43.651 31.0796 44.1575 30.7671 44.47L25.9674 49.2698C25.6549 49.5823 25.1483 49.5823 24.8358 49.2698C24.5233 48.9576 24.5233 48.4511 24.8358 48.1385L28.27 44.7045ZM45.8069 23.3336C45.4224 23.1161 45.2874 22.6279 45.5052 22.2434C45.7228 21.8589 46.211 21.7239 46.5955 21.9417C50.9209 24.3919 53.4013 27.6075 53.4013 31.104C53.4013 37.0208 46.2876 42.022 35.9454 43.9151C35.5109 43.9946 35.0938 43.7066 35.0146 43.272C34.935 42.8375 35.2228 42.4208 35.6573 42.3412C45.3303 40.5706 51.801 36.0215 51.801 31.1046C51.801 28.2783 49.6796 25.528 45.8068 23.334L45.8069 23.3336Z" fill="#303030"/>
</svg>
