<svg width="54" height="55" viewBox="0 0 54 55" fill="none" xmlns="http://www.w3.org/2000/svg">
<path d="M47.258 25.8623C46.8254 25.8665 46.457 25.5497 46.3966 25.1213C45.7852 20.9334 43.8385 17.0543 40.8462 14.0606C37.8543 11.0668 33.976 9.1186 29.7885 8.50478C29.5601 8.47286 29.3535 8.35134 29.2147 8.16713C29.0755 7.98292 29.0155 7.75103 29.0474 7.5226C29.114 7.0469 29.5539 6.7154 30.0296 6.78193C34.5909 7.44646 38.8161 9.56615 42.0757 12.8258C45.3354 16.0854 47.4551 20.3101 48.1196 24.8719C48.1861 25.3426 47.8581 25.7787 47.3874 25.8452L47.258 25.8623Z" fill="#303030"/>
<path d="M24.0864 49.0416H23.9656C19.4043 48.377 15.1791 46.2574 11.9195 42.9977C8.6599 39.7381 6.54021 35.513 5.87568 30.9516C5.80915 30.4759 6.14065 30.036 6.61673 29.9694C7.09243 29.9029 7.53199 30.2344 7.59853 30.7105C8.20998 34.8984 10.1566 38.7774 13.1489 41.7711C16.1409 44.765 20.0191 46.7131 24.2066 47.327C24.6827 47.3604 25.0411 47.7731 25.0081 48.2488C24.9746 48.7245 24.562 49.0833 24.0863 49.0498L24.0864 49.0416Z" fill="#303030"/>
<path d="M29.9083 49.0414C29.4326 49.0745 29.02 48.7161 28.9865 48.2404C28.9534 47.7643 29.3118 47.3517 29.7879 47.3186C33.9758 46.7071 37.8549 44.7605 40.8486 41.7682C43.8424 38.7762 45.7906 34.898 46.4044 30.7105C46.4709 30.2344 46.9109 29.9029 47.3866 29.9694C47.8623 30.036 48.1938 30.4759 48.1272 30.9516C47.4627 35.5129 45.343 39.7381 42.0834 42.9977C38.8238 46.2574 34.5991 48.377 30.0373 49.0416L29.9083 49.0414Z" fill="#303030"/>
<path d="M6.73616 25.8609H6.61579C6.14469 25.794 5.81705 25.3583 5.88358 24.8876C6.54772 20.3259 8.66779 16.1007 11.9274 12.8415C15.1865 9.58195 19.4117 7.46177 23.9735 6.79764C24.4492 6.73073 24.8888 7.0626 24.9553 7.53831C25.0219 8.01401 24.6904 8.45357 24.2147 8.52048C20.026 9.12963 16.1461 11.074 13.1511 14.0647C10.1557 17.0555 8.20522 20.9322 7.58952 25.1194C7.52953 25.5444 7.16573 25.8605 6.73655 25.8605L6.73616 25.8609Z" fill="#303030"/>
<path d="M27.0019 11.2369C25.9962 11.2392 25.0306 10.8415 24.3184 10.1316C23.6058 9.42168 23.2047 8.45796 23.2031 7.45232C23.2016 6.44627 23.5996 5.48138 24.3099 4.76921C25.0206 4.05738 25.9847 3.65704 26.9903 3.65625C27.996 3.65548 28.9609 4.05428 29.6723 4.76537C30.3837 5.47605 30.7836 6.44056 30.7836 7.44651C30.7836 8.45019 30.3852 9.41281 29.6765 10.1234C28.9674 10.8341 28.0055 11.2344 27.0019 11.2368V11.2369ZM27.0019 5.38766C26.4527 5.38535 25.925 5.60186 25.5355 5.98912C25.1459 6.37638 24.9267 6.90284 24.9259 7.45236C24.9252 8.00151 25.1428 8.52839 25.5312 8.91677C25.9196 9.30518 26.4469 9.52323 26.996 9.52246C27.5452 9.52168 28.0717 9.30248 28.4593 8.91292C28.8465 8.52336 29.063 7.99574 29.0607 7.44654C29.0607 6.90045 28.8438 6.3767 28.4577 5.99059C28.0716 5.60448 27.5479 5.38759 27.0018 5.38759L27.0019 5.38766Z" fill="#303030"/>
<path d="M6.53114 31.6965C5.52854 31.6942 4.56798 31.2939 3.86034 30.5835C3.15313 29.8733 2.75624 28.9115 2.75782 27.9089C2.75936 26.9063 3.15891 25.9457 3.86881 25.2377C4.57832 24.5297 5.54016 24.1321 6.54226 24.1328C7.54486 24.1336 8.50582 24.5324 9.21464 25.2415C9.92347 25.9507 10.3214 26.9121 10.3214 27.9146C10.3191 28.9183 9.91876 29.8801 9.20805 30.5892C8.49737 31.298 7.53482 31.6964 6.53114 31.6964V31.6965ZM6.53114 25.8562V25.8558C5.98544 25.8581 5.46317 26.0769 5.07864 26.4641C4.69446 26.851 4.4791 27.3748 4.48064 27.9205C4.48218 28.4658 4.70023 28.9885 5.08671 29.3734C5.47358 29.7583 5.99697 29.9745 6.54226 29.9737C7.08796 29.9729 7.61092 29.7557 7.99635 29.3696C8.38207 28.9834 8.59857 28.4604 8.59857 27.9148C8.59857 27.3672 8.38053 26.8422 7.99251 26.4558C7.60448 26.0697 7.07839 25.8536 6.53114 25.8559V25.8562Z" fill="#303030"/>
<path d="M27.0018 52.1664C25.9954 52.1687 25.0298 51.7706 24.3172 51.0604C23.6046 50.3497 23.2038 49.3852 23.2031 48.3789C23.2024 47.3728 23.6015 46.4076 24.3129 45.6961C25.0248 44.9847 25.99 44.5852 26.996 44.5859C28.0025 44.5867 28.967 44.9874 29.6772 45.7C30.3879 46.4126 30.7859 47.3786 30.7835 48.3847C30.7812 49.3873 30.3821 50.3475 29.6733 51.0563C28.9646 51.765 28.004 52.1642 27.0018 52.1664L27.0018 52.1664ZM27.0018 46.3171C26.4531 46.3148 25.9258 46.531 25.5363 46.9178C25.1471 47.3043 24.9275 47.83 24.9259 48.3788C24.9244 48.9276 25.1409 49.4549 25.5282 49.8436C25.9154 50.2324 26.4415 50.4512 26.9903 50.452C27.5391 50.4528 28.066 50.2355 28.454 49.8475C28.8424 49.4598 29.0608 48.9334 29.0608 48.3846C29.0608 47.8378 28.8439 47.3132 28.4582 46.926C28.0725 46.5384 27.5487 46.3196 27.0018 46.3173V46.3171Z" fill="#303030"/>
<path d="M47.4689 31.6964C46.4659 31.6964 45.5042 31.298 44.795 30.5885C44.0859 29.8793 43.6875 28.9175 43.6875 27.9146C43.6875 26.9117 44.0859 25.9499 44.795 25.2407C45.5042 24.5312 46.466 24.1328 47.4689 24.1328C48.4718 24.1328 49.434 24.5312 50.1431 25.2407C50.8523 25.9499 51.2507 26.9117 51.2507 27.9146C51.2484 28.9168 50.8492 29.8775 50.1405 30.5862C49.4317 31.2949 48.4715 31.6941 47.4689 31.6964ZM47.4689 25.8561V25.8557C46.9232 25.8557 46.3995 26.0726 46.0133 26.4587C45.6272 26.8448 45.4103 27.3685 45.4103 27.9146C45.4103 28.4607 45.6272 28.9844 46.0133 29.3706C46.3994 29.7567 46.9232 29.9736 47.4689 29.9736C48.015 29.9736 48.5387 29.7567 48.9249 29.3706C49.311 28.9845 49.5278 28.4607 49.5278 27.9146C49.5255 27.3693 49.3079 26.847 48.9222 26.4613C48.5368 26.0756 48.0142 25.8579 47.4689 25.8556L47.4689 25.8561Z" fill="#303030"/>
<path d="M25.4564 41.8796C25.3345 41.8793 25.2141 41.8527 25.1034 41.8023C24.7476 41.6435 24.5427 41.2655 24.6038 40.8805L25.9821 32.6282H14.6625C14.3314 32.6271 14.0299 32.4363 13.8872 32.1371C13.7453 31.8368 13.7888 31.4814 13.9991 31.2242L27.8597 14.2714C28.1066 13.9672 28.528 13.8684 28.8849 14.0303C29.2622 14.1902 29.4744 14.5937 29.3929 14.9951L28.0146 23.2475H39.3342C39.6653 23.2486 39.9668 23.4394 40.1095 23.7386C40.2514 24.0389 40.2079 24.3942 39.9976 24.6515L26.1371 41.562C25.9709 41.7665 25.7202 41.8842 25.4564 41.8804V41.8796ZM16.4807 30.9056H26.9989C27.255 30.9018 27.4996 31.0125 27.6661 31.2071C27.8326 31.4021 27.9037 31.6609 27.8603 31.9136L26.8439 37.9435L37.5255 24.9011H26.9985C26.7424 24.9049 26.4978 24.7942 26.3313 24.5996C26.1648 24.4046 26.0936 24.1458 26.1371 23.8931L27.1534 17.8632L16.4807 30.9056Z" fill="#303030"/>
</svg>
