<svg width="54" height="55" viewBox="0 0 54 55" fill="none" xmlns="http://www.w3.org/2000/svg">
<path d="M28.0839 25.771L31.1134 21.1016H26.5447L21.4453 28.9591H26.6406L24.0688 34.8702L28.6077 30.2099L32.5929 25.771H28.0839Z" fill="#303030"/>
<path d="M50.4688 19.1214H45.6226C44.8316 19.1214 44.188 19.7656 44.188 20.5567V21.3654H42.5075V20.5021L33.3798 13.3203H30.049V10.8359H21.6487V13.3209H17.6538C16.802 13.3209 16.1098 14.044 16.1098 14.9334V17.7742H11.6461C10.7943 17.7742 10.1004 18.4973 10.1004 19.3867V19.7158H7.50912V14.5648H2.125V40.838H7.50912V35.6871H10.1004V36.4593C10.1004 37.3482 10.7943 38.0731 11.6461 38.0731H15.8214L19.0368 41.2891H29.1055V44.2252H38.2453V41.2891H39.5094C40.3612 41.2891 41.0545 40.5647 41.0545 39.6771V38.3202H42.508V37.5072H44.1885V38.3165C44.1885 39.1089 44.8314 39.7512 45.6231 39.7512H50.4693C51.2604 39.7512 51.9046 39.1089 51.9046 38.3165L51.904 20.5591C51.9052 19.768 51.2598 19.1226 50.4687 19.1226L50.4688 19.1214ZM36.5035 42.482H30.845V41.3157H36.5035V42.482ZM23.3888 12.5764H28.3072V13.3208H23.3888V12.5764ZM5.76654 39.0953H3.86381L3.86442 16.3036H5.76715V35.6852L5.76654 39.0953ZM7.50778 33.9443V21.455H10.099V33.9443H7.50778ZM39.3126 36.5773V39.5457L19.7554 39.5451L16.5399 36.3291H11.8389V35.685L11.8395 19.7149V19.5146H17.8489V15.0619H32.7753L40.7663 21.3475V36.578L39.3122 36.5787L39.3126 36.5773ZM42.5068 35.765V23.1051H44.1873V35.7638L42.5068 35.7644V35.765ZM50.1634 38.009H45.9274V20.8624H50.1628V38.009H50.1634Z" fill="#303030"/>
</svg>
