<svg width="55" height="55" viewBox="0 0 55 55" fill="none" xmlns="http://www.w3.org/2000/svg">
<path d="M28.2089 25.771L31.2384 21.1016H26.6697L21.5703 28.9591H26.7656L24.1938 34.8702L28.7327 30.2099L32.7179 25.771H28.2089Z" fill="white"/>
<path d="M50.5938 19.1214H45.7476C44.9566 19.1214 44.313 19.7656 44.313 20.5567V21.3654H42.6325V20.5021L33.5048 13.3203H30.174V10.8359H21.7737V13.3209H17.7788C16.927 13.3209 16.2348 14.044 16.2348 14.9334V17.7742H11.7711C10.9193 17.7742 10.2254 18.4973 10.2254 19.3867V19.7158H7.63412V14.5648H2.25V40.838H7.63412V35.6871H10.2254V36.4593C10.2254 37.3482 10.9193 38.0731 11.7711 38.0731H15.9464L19.1618 41.2891H29.2305V44.2252H38.3703V41.2891H39.6344C40.4862 41.2891 41.1795 40.5647 41.1795 39.6771V38.3202H42.633V37.5072H44.3135V38.3165C44.3135 39.1089 44.9564 39.7512 45.7481 39.7512H50.5943C51.3854 39.7512 52.0296 39.1089 52.0296 38.3165L52.029 20.5591C52.0302 19.768 51.3848 19.1226 50.5937 19.1226L50.5938 19.1214ZM36.6285 42.482H30.97V41.3157H36.6285V42.482ZM23.5138 12.5764H28.4322V13.3208H23.5138V12.5764ZM5.89154 39.0953H3.98881L3.98942 16.3036H5.89215V35.6852L5.89154 39.0953ZM7.63278 33.9443V21.455H10.224V33.9443H7.63278ZM39.4376 36.5773V39.5457L19.8804 39.5451L16.6649 36.3291H11.9639V35.685L11.9645 19.7149V19.5146H17.9739V15.0619H32.9003L40.8913 21.3475V36.578L39.4372 36.5787L39.4376 36.5773ZM42.6318 35.765V23.1051H44.3123V35.7638L42.6318 35.7644V35.765ZM50.2884 38.009H46.0524V20.8624H50.2878V38.009H50.2884Z" fill="white"/>
</svg>
