<svg width="54" height="54" viewBox="0 0 54 54" fill="none" xmlns="http://www.w3.org/2000/svg">
<path fill-rule="evenodd" clip-rule="evenodd" d="M20.5833 22.571C20.2027 22.4574 19.8532 22.2504 19.5675 21.9647C19.1143 21.5115 18.8594 20.8959 18.8594 20.2543V11.8913C18.8594 10.5558 19.9424 9.473 21.278 9.473H22.7928C22.885 7.23045 24.7353 5.4375 27.0004 5.4375C29.2662 5.4375 31.1164 7.23045 31.2083 9.473H32.7232C34.0593 9.473 35.142 10.5557 35.142 11.8913V20.2543C35.142 20.8959 34.8874 21.5115 34.4332 21.9647C34.1482 22.2504 33.798 22.4574 33.4184 22.571C33.5503 22.8633 33.6245 23.1879 33.6245 23.529V24.7C33.6245 25.5167 33.2029 26.2359 32.5655 26.6503C32.7942 27.0173 32.9184 27.4431 32.9184 27.8822V29.0523C32.9184 29.6694 32.6728 30.2616 32.2368 30.6979C32.1208 30.8136 31.9945 30.916 31.8598 31.0034C32.0885 31.3699 32.2127 31.7962 32.2127 32.2353V33.4057C32.2127 34.0226 31.9671 34.6141 31.5307 35.051C31.4156 35.1662 31.2888 35.2683 31.1538 35.356C31.3777 35.7131 31.5066 36.1353 31.5066 36.5876V37.7589C31.5066 38.1012 31.4328 38.4258 31.2999 38.7187C32.2373 39.011 32.9184 39.8857 32.9184 40.9196V42.2151C32.9184 42.8262 32.6758 43.4129 32.2431 43.845C31.955 44.1337 31.5985 44.3377 31.211 44.4408C31.16 46.7207 29.293 48.5553 27.0004 48.5553C24.7084 48.5553 22.8413 46.7207 22.7898 44.4408C22.4028 44.3377 22.0466 44.1337 21.7586 43.845C21.3259 43.4129 21.083 42.8262 21.083 42.2151V40.9196C21.083 39.8857 21.7634 39.011 22.7014 38.7187C22.5688 38.4258 22.4947 38.1012 22.4947 37.7589V36.5876C22.4947 36.1353 22.624 35.7131 22.847 35.356C22.712 35.2683 22.5857 35.1662 22.47 35.051C22.0337 34.6141 21.789 34.0226 21.789 33.4057V32.2353C21.789 31.7963 21.9131 31.3699 22.1418 31.0034C22.0068 30.916 21.88 30.8136 21.7643 30.6979C21.3279 30.2615 21.0829 29.6694 21.0829 29.0523V27.8822C21.0829 27.4431 21.2071 27.0173 21.4358 26.6503C20.7985 26.2359 20.3772 25.5167 20.3772 24.7V23.529C20.3772 23.1879 20.4504 22.8633 20.5833 22.571H20.5833ZM22.5532 40.9195C22.5532 40.4587 22.9274 40.0845 23.3885 40.0845H30.6131C31.0741 40.0845 31.4474 40.4587 31.4474 40.9195V42.2149C31.4474 42.4358 31.3598 42.6483 31.2031 42.8049C31.0464 42.9616 30.8339 43.0493 30.613 43.0493H29.4173C29.624 43.4353 29.7419 43.8759 29.7419 44.3439C29.7419 45.8566 28.5136 47.0848 27.0003 47.0848C25.4876 47.0848 24.2593 45.8566 24.2593 44.3439C24.2593 43.8759 24.3765 43.4354 24.5842 43.0493H23.3884C23.1667 43.0493 22.9542 42.9616 22.7981 42.8049C22.6414 42.6483 22.5531 42.4358 22.5531 42.2149V40.9195H22.5532ZM27.0003 45.6143C27.7018 45.6143 28.2711 45.0448 28.2711 44.3438C28.2711 43.642 27.7019 43.0731 27.0003 43.0731C26.2994 43.0731 25.7298 43.642 25.7298 44.3438C25.7298 45.0448 26.2994 45.6143 27.0003 45.6143ZM24.8213 35.7315C24.3482 35.7315 23.9649 36.1148 23.9649 36.587V37.7584C23.9649 38.2306 24.3482 38.6139 24.8213 38.6139H29.1802C29.6524 38.6139 30.0357 38.2306 30.0357 37.7584V36.587C30.0357 36.1148 29.6524 35.7315 29.1802 35.7315H24.8213ZM24.1153 34.2607H29.886C30.1126 34.2607 30.3307 34.1709 30.4911 34.01C30.6511 33.8497 30.7415 33.6318 30.7415 33.4052V32.2348C30.7415 32.0073 30.6511 31.79 30.4911 31.6291C30.3308 31.4688 30.1126 31.3784 29.886 31.3784H24.1153C23.8881 31.3784 23.6708 31.4688 23.5096 31.6291C23.3496 31.79 23.2592 32.0073 23.2592 32.2348V33.4052C23.2592 33.6318 23.3496 33.8497 23.5096 34.01C23.6708 34.1709 23.8881 34.2607 24.1153 34.2607ZM31.4475 27.8817C31.4475 27.6542 31.3571 27.4369 31.1968 27.2766C31.0365 27.1157 30.8186 27.0253 30.592 27.0253H23.4096C23.1824 27.0253 22.9648 27.1157 22.8039 27.2766C22.6436 27.4369 22.5532 27.6542 22.5532 27.8817V29.0518C22.5532 29.2793 22.6436 29.4966 22.8039 29.6575C22.9648 29.8178 23.1824 29.9082 23.4096 29.9082H30.592C30.8186 29.9082 31.0365 29.8178 31.1968 29.6575C31.3571 29.4966 31.4475 29.2793 31.4475 29.0518V27.8817ZM31.2977 22.6728H22.7032C22.2304 22.6728 21.8471 23.0561 21.8471 23.5286V24.6996C21.8471 25.1718 22.2304 25.5552 22.7032 25.5552H31.2977C31.7699 25.5552 32.1532 25.1718 32.1532 24.6996V23.5286C32.1532 23.0561 31.7699 22.6728 31.2977 22.6728ZM33.6711 14.4956H20.33V20.2537C20.33 20.5056 20.4301 20.7464 20.6082 20.9241C20.786 21.1019 21.0267 21.2017 21.278 21.2017H32.723C32.9743 21.2017 33.2156 21.1019 33.3934 20.9241C33.5712 20.7464 33.671 20.5056 33.671 20.2537V14.4956H33.6711ZM24.5845 10.9428C24.3768 10.5574 24.2596 10.1172 24.2596 9.64915C24.2596 8.13645 25.4879 6.90726 27.0006 6.90726C28.5139 6.90726 29.7422 8.13645 29.7422 9.64915C29.7422 10.1171 29.6243 10.5573 29.4176 10.9428H32.7233C33.2471 10.9428 33.6714 11.368 33.6714 11.8908V13.0254H20.3303V11.8908C20.3303 11.368 20.7552 10.9428 21.2783 10.9428H24.5845H24.5845ZM27.0006 8.37845C27.7021 8.37845 28.2713 8.94738 28.2713 9.64922C28.2713 10.3501 27.7021 10.9197 27.0006 10.9197C26.2997 10.9197 25.7301 10.3502 25.7301 9.64922C25.7301 8.9474 26.2996 8.37845 27.0006 8.37845Z" fill="black"/>
</svg>
