<svg width="54" height="55" viewBox="0 0 54 55" fill="none" xmlns="http://www.w3.org/2000/svg">
<path fill-rule="evenodd" clip-rule="evenodd" d="M20.5833 23.4773C20.2027 23.3637 19.8532 23.1567 19.5675 22.871C19.1143 22.4178 18.8594 21.8022 18.8594 21.1606V12.7975C18.8594 11.462 19.9424 10.3792 21.278 10.3792H22.7928C22.885 8.1367 24.7353 6.34375 27.0004 6.34375C29.2662 6.34375 31.1164 8.1367 31.2083 10.3792H32.7232C34.0593 10.3792 35.142 11.4619 35.142 12.7975V21.1606C35.142 21.8021 34.8874 22.4178 34.4332 22.871C34.1482 23.1567 33.798 23.3637 33.4184 23.4773C33.5503 23.7696 33.6245 24.0941 33.6245 24.4352V25.6063C33.6245 26.4229 33.2029 27.1422 32.5655 27.5565C32.7942 27.9236 32.9184 28.3493 32.9184 28.7884V29.9585C32.9184 30.5757 32.6728 31.1678 32.2368 31.6041C32.1208 31.7198 31.9945 31.8223 31.8598 31.9097C32.0885 32.2761 32.2127 32.7025 32.2127 33.1416V34.312C32.2127 34.9288 31.9671 35.5204 31.5307 35.9573C31.4156 36.0724 31.2888 36.1746 31.1538 36.2623C31.3777 36.6193 31.5066 37.0415 31.5066 37.4938V38.6652C31.5066 39.0075 31.4328 39.332 31.2999 39.6249C32.2373 39.9172 32.9184 40.792 32.9184 41.8259V43.1213C32.9184 43.7324 32.6758 44.3191 32.2431 44.7513C31.955 45.04 31.5985 45.244 31.211 45.347C31.16 47.627 29.293 49.4615 27.0004 49.4615C24.7084 49.4615 22.8413 47.627 22.7898 45.347C22.4028 45.244 22.0466 45.04 21.7586 44.7513C21.3259 44.3192 21.083 43.7325 21.083 43.1213V41.8259C21.083 40.792 21.7634 39.9172 22.7014 39.6249C22.5688 39.332 22.4947 39.0075 22.4947 38.6652V37.4938C22.4947 37.0415 22.624 36.6193 22.847 36.2623C22.712 36.1746 22.5857 36.0724 22.47 35.9573C22.0337 35.5204 21.789 34.9288 21.789 34.312V33.1416C21.789 32.7025 21.9131 32.2761 22.1418 31.9097C22.0068 31.8223 21.88 31.7198 21.7643 31.6041C21.3279 31.1678 21.0829 30.5757 21.0829 29.9585V28.7884C21.0829 28.3494 21.2071 27.9236 21.4358 27.5565C20.7985 27.1422 20.3772 26.4229 20.3772 25.6063V24.4352C20.3772 24.0941 20.4504 23.7696 20.5833 23.4773H20.5833ZM22.5532 41.8257C22.5532 41.365 22.9274 40.9907 23.3885 40.9907H30.6131C31.0741 40.9907 31.4474 41.365 31.4474 41.8257V43.1212C31.4474 43.3421 31.3598 43.5545 31.2031 43.7112C31.0464 43.8679 30.8339 43.9556 30.613 43.9556H29.4173C29.624 44.3416 29.7419 44.7822 29.7419 45.2501C29.7419 46.7628 28.5136 47.9911 27.0003 47.9911C25.4876 47.9911 24.2593 46.7628 24.2593 45.2501C24.2593 44.7821 24.3765 44.3416 24.5842 43.9556H23.3884C23.1667 43.9556 22.9542 43.8679 22.7981 43.7112C22.6414 43.5545 22.5531 43.3421 22.5531 43.1212V41.8257H22.5532ZM27.0003 46.5206C27.7018 46.5206 28.2711 45.951 28.2711 45.2501C28.2711 44.5483 27.7019 43.9793 27.0003 43.9793C26.2994 43.9793 25.7298 44.5482 25.7298 45.2501C25.7298 45.951 26.2994 46.5206 27.0003 46.5206ZM24.8213 36.6378C24.3482 36.6378 23.9649 37.0211 23.9649 37.4933V38.6646C23.9649 39.1368 24.3482 39.5201 24.8213 39.5201H29.1802C29.6524 39.5201 30.0357 39.1368 30.0357 38.6646V37.4933C30.0357 37.0211 29.6524 36.6378 29.1802 36.6378H24.8213ZM24.1153 35.167H29.886C30.1126 35.167 30.3307 35.0772 30.4911 34.9163C30.6511 34.756 30.7415 34.5381 30.7415 34.3115V33.1411C30.7415 32.9136 30.6511 32.6963 30.4911 32.5354C30.3308 32.3751 30.1126 32.2847 29.886 32.2847H24.1153C23.8881 32.2847 23.6708 32.3751 23.5096 32.5354C23.3496 32.6963 23.2592 32.9135 23.2592 33.1411V34.3115C23.2592 34.5381 23.3496 34.756 23.5096 34.9163C23.6708 35.0772 23.8881 35.167 24.1153 35.167ZM31.4475 28.788C31.4475 28.5604 31.3571 28.3432 31.1968 28.1829C31.0365 28.0219 30.8186 27.9315 30.592 27.9315H23.4096C23.1824 27.9315 22.9648 28.0219 22.8039 28.1829C22.6436 28.3432 22.5532 28.5604 22.5532 28.788V29.9581C22.5532 30.1856 22.6436 30.4028 22.8039 30.5638C22.9648 30.7241 23.1824 30.8145 23.4096 30.8145H30.592C30.8186 30.8145 31.0365 30.7241 31.1968 30.5638C31.3571 30.4028 31.4475 30.1856 31.4475 29.9581V28.788ZM31.2977 23.579H22.7032C22.2304 23.579 21.8471 23.9623 21.8471 24.4349V25.6059C21.8471 26.0781 22.2304 26.4614 22.7032 26.4614H31.2977C31.7699 26.4614 32.1532 26.0781 32.1532 25.6059V24.4349C32.1532 23.9624 31.7699 23.579 31.2977 23.579ZM33.6711 15.4019H20.33V21.1599C20.33 21.4118 20.4301 21.6526 20.6082 21.8304C20.786 22.0082 21.0267 22.1079 21.278 22.1079H32.723C32.9743 22.1079 33.2156 22.0082 33.3934 21.8304C33.5712 21.6526 33.671 21.4118 33.671 21.1599V15.4019H33.6711ZM24.5845 11.8491C24.3768 11.4637 24.2596 11.0234 24.2596 10.5554C24.2596 9.0427 25.4879 7.81351 27.0006 7.81351C28.5139 7.81351 29.7422 9.0427 29.7422 10.5554C29.7422 11.0234 29.6243 11.4636 29.4176 11.8491H32.7233C33.2471 11.8491 33.6714 12.2743 33.6714 12.7971V13.9316H20.3303V12.7971C20.3303 12.2743 20.7552 11.8491 21.2783 11.8491H24.5845H24.5845ZM27.0006 9.2847C27.7021 9.2847 28.2713 9.85363 28.2713 10.5555C28.2713 11.2564 27.7021 11.8259 27.0006 11.8259C26.2997 11.8259 25.7301 11.2564 25.7301 10.5555C25.7301 9.85365 26.2996 9.2847 27.0006 9.2847Z" fill="white"/>
</svg>
