<svg width="54" height="54" viewBox="0 0 54 54" fill="none" xmlns="http://www.w3.org/2000/svg">
<path d="M26.9994 12C18.729 12 12 18.7291 12 26.9994C12 35.2697 18.7291 41.9987 26.9994 41.9987C35.2697 41.9987 41.9987 35.2697 41.9987 26.9994C41.9987 18.7291 35.2697 12 26.9994 12ZM26.9994 40.7488C19.4183 40.7488 13.2499 34.5808 13.2499 26.9994C13.2499 19.4179 19.4179 13.2499 26.9994 13.2499C34.5808 13.2499 40.7488 19.4179 40.7488 26.9994C40.7488 34.5808 34.5808 40.7488 26.9994 40.7488Z" fill="white"/>
<path d="M26.9995 14.5C20.1072 14.5 14.5 20.1072 14.5 26.9995C14.5 33.8918 20.1072 39.499 26.9995 39.499C33.8918 39.499 39.499 33.8918 39.499 26.9995C39.499 20.1072 33.8918 14.5 26.9995 14.5ZM26.9995 38.249C20.7966 38.249 15.7499 33.2024 15.7499 26.9995C15.7499 20.7966 20.7966 15.7499 26.9995 15.7499C33.2024 15.7499 38.249 20.7966 38.249 26.9995C38.249 33.2024 33.2024 38.249 26.9995 38.249Z" fill="white"/>
<path d="M46.9983 26.9992C46.9983 15.9711 38.0266 7 26.9992 7C15.9718 7 7 15.9711 7 26.9992C7 38.0266 15.9718 46.9983 26.9992 46.9983C38.0266 46.9983 46.9983 38.0266 46.9983 26.9992ZM36.9059 42.9071L36.291 41.841C36.118 41.5416 35.7366 41.4392 35.4372 41.6122C35.1378 41.7846 35.036 42.1671 35.2084 42.4659L35.8259 43.5354C33.3661 44.8531 30.5805 45.6344 27.6248 45.7326V44.4983C27.6248 44.1534 27.3447 43.8733 26.9998 43.8733C26.655 43.8733 26.3748 44.1534 26.3748 44.4983V45.7326C23.4187 45.6352 20.6331 44.8532 18.1737 43.5351L18.7906 42.4665C18.9631 42.1671 18.8607 41.7852 18.5618 41.6128C18.2619 41.4398 17.8805 41.5427 17.7081 41.8415L17.0932 42.9071C14.6653 41.3896 12.609 39.3336 11.0915 36.9054L12.1564 36.2905C12.4558 36.118 12.5577 35.7355 12.3852 35.4367C12.2122 35.1373 11.8297 35.0349 11.5315 35.2079L10.4634 35.8248C9.14543 33.3656 8.36339 30.5795 8.26597 27.6237H9.4997C9.84455 27.6237 10.1247 27.3436 10.1247 26.9988C10.1247 26.6539 9.84455 26.3738 9.4997 26.3738H8.26597C8.36334 23.4177 9.14536 20.6321 10.4634 18.1734L11.532 18.7903C11.6303 18.8472 11.7382 18.874 11.844 18.874C12.0602 18.874 12.2703 18.7621 12.3858 18.5615C12.5582 18.2627 12.4558 17.8802 12.157 17.7078L11.0915 17.0928C12.609 14.6649 14.665 12.6087 17.0932 11.0911L17.7081 12.1567C17.8244 12.3573 18.0337 12.4692 18.2499 12.4692C18.3557 12.4692 18.4631 12.4424 18.5619 12.3855C18.8612 12.213 18.9631 11.8305 18.7906 11.5317L18.1738 10.4631C20.6329 9.14452 23.4185 8.36334 26.3748 8.26513V9.49943C26.3748 9.84428 26.655 10.1244 26.9998 10.1244C27.3447 10.1244 27.6248 9.84428 27.6248 9.49943V8.26513C30.5809 8.3625 33.3665 9.14452 35.8252 10.462L35.2077 11.5306C35.0353 11.83 35.1371 12.212 35.436 12.3844C35.5347 12.4413 35.6421 12.4681 35.7484 12.4681C35.9647 12.4681 36.1748 12.3562 36.2903 12.1556L36.9058 11.0901C39.3337 12.6076 41.3899 14.6636 42.908 17.0918L41.8419 17.7067C41.5431 17.8791 41.4407 18.2616 41.6131 18.5604C41.7286 18.761 41.9387 18.8729 42.1549 18.8729C42.2607 18.8729 42.3681 18.8461 42.4669 18.7892L43.5363 18.1723C44.8538 20.6315 45.6356 23.4165 45.7338 26.3734H44.4995C44.1547 26.3734 43.8745 26.6535 43.8745 26.9984C43.8745 27.3432 44.1547 27.6234 44.4995 27.6234H45.7338C45.6364 30.5795 44.8544 33.3651 43.5369 35.8245L42.4683 35.207C42.1689 35.034 41.787 35.1364 41.6146 35.4358C41.4421 35.7346 41.5445 36.1171 41.8433 36.2895L42.9089 36.905C41.3905 39.3329 39.3345 41.3898 36.9063 42.9073L36.9059 42.9071Z" fill="white"/>
</svg>
