<svg width="55" height="54" viewBox="0 0 55 54" fill="none" xmlns="http://www.w3.org/2000/svg">
<path d="M27.1244 12C18.854 12 12.125 18.7291 12.125 26.9994C12.125 35.2697 18.8541 41.9987 27.1244 41.9987C35.3947 41.9987 42.1237 35.2697 42.1237 26.9994C42.1237 18.7291 35.3947 12 27.1244 12ZM27.1244 40.7488C19.5433 40.7488 13.3749 34.5808 13.3749 26.9994C13.3749 19.4179 19.5429 13.2499 27.1244 13.2499C34.7058 13.2499 40.8738 19.4179 40.8738 26.9994C40.8738 34.5808 34.7058 40.7488 27.1244 40.7488Z" fill="#303030"/>
<path d="M27.1245 14.5C20.2322 14.5 14.625 20.1072 14.625 26.9995C14.625 33.8918 20.2322 39.499 27.1245 39.499C34.0168 39.499 39.624 33.8918 39.624 26.9995C39.624 20.1072 34.0168 14.5 27.1245 14.5ZM27.1245 38.249C20.9216 38.249 15.8749 33.2024 15.8749 26.9995C15.8749 20.7966 20.9216 15.7499 27.1245 15.7499C33.3274 15.7499 38.374 20.7966 38.374 26.9995C38.374 33.2024 33.3274 38.249 27.1245 38.249Z" fill="#303030"/>
<path d="M47.1233 26.9992C47.1233 15.9711 38.1516 7 27.1242 7C16.0968 7 7.125 15.9711 7.125 26.9992C7.125 38.0266 16.0968 46.9983 27.1242 46.9983C38.1516 46.9983 47.1233 38.0266 47.1233 26.9992ZM37.0309 42.9071L36.416 41.841C36.243 41.5416 35.8616 41.4392 35.5622 41.6122C35.2628 41.7846 35.161 42.1671 35.3334 42.4659L35.9509 43.5354C33.4911 44.8531 30.7055 45.6344 27.7498 45.7326V44.4983C27.7498 44.1534 27.4697 43.8733 27.1248 43.8733C26.78 43.8733 26.4998 44.1534 26.4998 44.4983V45.7326C23.5437 45.6352 20.7581 44.8532 18.2987 43.5351L18.9156 42.4665C19.0881 42.1671 18.9857 41.7852 18.6868 41.6128C18.3869 41.4398 18.0055 41.5427 17.8331 41.8415L17.2182 42.9071C14.7903 41.3896 12.734 39.3336 11.2165 36.9054L12.2814 36.2905C12.5808 36.118 12.6827 35.7355 12.5102 35.4367C12.3372 35.1373 11.9547 35.0349 11.6565 35.2079L10.5884 35.8248C9.27043 33.3656 8.48839 30.5795 8.39097 27.6237H9.6247C9.96955 27.6237 10.2497 27.3436 10.2497 26.9988C10.2497 26.6539 9.96955 26.3738 9.6247 26.3738H8.39097C8.48834 23.4177 9.27036 20.6321 10.5884 18.1734L11.657 18.7903C11.7553 18.8472 11.8632 18.874 11.969 18.874C12.1852 18.874 12.3953 18.7621 12.5108 18.5615C12.6832 18.2627 12.5808 17.8802 12.282 17.7078L11.2165 17.0928C12.734 14.6649 14.79 12.6087 17.2182 11.0911L17.8331 12.1567C17.9494 12.3573 18.1587 12.4692 18.3749 12.4692C18.4807 12.4692 18.5881 12.4424 18.6869 12.3855C18.9862 12.213 19.0881 11.8305 18.9156 11.5317L18.2988 10.4631C20.7579 9.14452 23.5435 8.36334 26.4998 8.26513V9.49943C26.4998 9.84428 26.78 10.1244 27.1248 10.1244C27.4697 10.1244 27.7498 9.84428 27.7498 9.49943V8.26513C30.7059 8.3625 33.4915 9.14452 35.9502 10.462L35.3327 11.5306C35.1603 11.83 35.2621 12.212 35.561 12.3844C35.6597 12.4413 35.7671 12.4681 35.8734 12.4681C36.0897 12.4681 36.2998 12.3562 36.4153 12.1556L37.0308 11.0901C39.4587 12.6076 41.5149 14.6636 43.033 17.0918L41.9669 17.7067C41.6681 17.8791 41.5657 18.2616 41.7381 18.5604C41.8536 18.761 42.0637 18.8729 42.2799 18.8729C42.3857 18.8729 42.4931 18.8461 42.5919 18.7892L43.6613 18.1723C44.9788 20.6315 45.7606 23.4165 45.8588 26.3734H44.6245C44.2797 26.3734 43.9995 26.6535 43.9995 26.9984C43.9995 27.3432 44.2797 27.6234 44.6245 27.6234H45.8588C45.7614 30.5795 44.9794 33.3651 43.6619 35.8245L42.5933 35.207C42.2939 35.034 41.912 35.1364 41.7396 35.4358C41.5671 35.7346 41.6695 36.1171 41.9683 36.2895L43.0339 36.905C41.5155 39.3329 39.4595 41.3898 37.0313 42.9073L37.0309 42.9071Z" fill="#303030"/>
</svg>
